<?xml version="1.0" encoding="UTF-8" standalone="no"?>
<!-- Generator: Adobe Illustrator 18.0.0, SVG Export Plug-In . SVG Version: 6.00 Build 0)  -->

<svg
   xmlns:dc="http://purl.org/dc/elements/1.1/"
   xmlns:cc="http://creativecommons.org/ns#"
   xmlns:rdf="http://www.w3.org/1999/02/22-rdf-syntax-ns#"
   xmlns:svg="http://www.w3.org/2000/svg"
   xmlns="http://www.w3.org/2000/svg"
   xmlns:sodipodi="http://sodipodi.sourceforge.net/DTD/sodipodi-0.dtd"
   xmlns:inkscape="http://www.inkscape.org/namespaces/inkscape"
   version="1.0"
   id="Layer_1"
   x="0px"
   y="0px"
   width="18px"
   height="18px"
   viewBox="0 0 18 18"
   enable-background="new 0 0 18 18"
   xml:space="preserve"
   inkscape:version="0.91+devel+osxmenu r12911"
   sodipodi:docname="airport_icon.svg"><metadata
     id="metadata63388"><rdf:RDF><cc:Work
         rdf:about=""><dc:format>image/svg+xml</dc:format><dc:type
           rdf:resource="http://purl.org/dc/dcmitype/StillImage" /></cc:Work></rdf:RDF></metadata><defs
     id="defs63386" /><sodipodi:namedview
     pagecolor="#ffffff"
     bordercolor="#666666"
     borderopacity="1"
     objecttolerance="10"
     gridtolerance="10"
     guidetolerance="10"
     inkscape:pageopacity="0"
     inkscape:pageshadow="2"
     inkscape:window-width="1277"
     inkscape:window-height="746"
     id="namedview63384"
     showgrid="false"
     inkscape:zoom="22.627417"
     inkscape:cx="9.4866504"
     inkscape:cy="8.6353305"
     inkscape:window-x="-45"
     inkscape:window-y="23"
     inkscape:window-maximized="0"
     inkscape:current-layer="Layer_1"
     inkscape:object-nodes="true"
     inkscape:snap-smooth-nodes="true"><inkscape:grid
       type="xygrid"
       id="grid6309" /></sodipodi:namedview><path
     style="color:#000000;font-style:normal;font-variant:normal;font-weight:normal;font-stretch:normal;font-size:medium;line-height:normal;font-family:sans-serif;text-indent:0;text-align:start;text-decoration:none;text-decoration-line:none;text-decoration-style:solid;text-decoration-color:#000000;letter-spacing:normal;word-spacing:normal;text-transform:none;direction:ltr;block-progression:tb;writing-mode:lr-tb;baseline-shift:baseline;text-anchor:start;white-space:normal;shape-padding:0;clip-rule:nonzero;display:inline;overflow:visible;visibility:visible;opacity:1;isolation:auto;mix-blend-mode:normal;color-interpolation:sRGB;color-interpolation-filters:linearRGB;solid-color:#000000;solid-opacity:1;fill:#000000;fill-opacity:1;fill-rule:nonzero;stroke:none;stroke-width:2;stroke-linecap:butt;stroke-linejoin:miter;stroke-miterlimit:4;stroke-dasharray:none;stroke-dashoffset:0;stroke-opacity:1;color-rendering:auto;image-rendering:auto;shape-rendering:auto;text-rendering:auto;enable-background:accumulate"
     d="M 9,0 C 8.166667,9.1666671e-8 7.450104,0.38583382 6.917969,0.91796875 6.385834,1.4501037 6,2.1666666 6,3 l 0,2.5195312 -5,4 0,3.9570308 5.386719,-2.154296 0.46875,1.408203 L 5,14.585938 5,17.386719 9,16.054688 13,17.386719 13,16 13,14.585938 11.144531,12.730469 11.613281,11.322266 17,13.476562 l 0,-3.9570308 -5,-4 L 12,3 C 12,2.1666666 11.614166,1.4501036 11.082031,0.91796875 10.549896,0.3858339 9.833333,-9.1666671e-8 9,0 Z"
     id="path6356"
     inkscape:connector-curvature="0"
     sodipodi:nodetypes="sssccccccccccccccccsss" /><g
     style="fill:#50a882;fill-opacity:1;stroke-width:0.60838038;stroke:none"
     transform="matrix(1.1622774,-1.1622774,1.1622774,1.1622774,-12.228365,9.728388)"
     id="g6358"><path
       sodipodi:nodetypes="cccccccccccsccccccc"
       style="fill:#50a882;fill-opacity:1;stroke:none;stroke-width:0.60838038"
       inkscape:connector-curvature="0"
       id="path6360"
       d="m 7.724814,13.120782 -0.8603798,-1.72076 -1.7207596,-0.86038 0.4301899,-0.43019 1.7207596,0 L 8.1550039,8.388693 5.1436746,7.0981233 6.0040544,6.2377435 9.8757635,6.6679334 11.166333,5.3773637 c 0.43019,-0.4301899 1.29057,-0.4301899 1.72076,0 0.43019,0.4301899 0.43019,1.2905697 0,1.7207596 l -1.29057,1.2905697 0.43019,3.871709 -0.86038,0.86038 -1.2905695,-3.011329 -1.7207596,0.860379 0,1.72076 z" /></g></svg>