<?xml version="1.0" encoding="UTF-8" standalone="no"?>
<!-- Generator: Adobe Illustrator 18.0.0, SVG Export Plug-In . SVG Version: 6.00 Build 0)  -->

<svg
   xmlns:dc="http://purl.org/dc/elements/1.1/"
   xmlns:cc="http://creativecommons.org/ns#"
   xmlns:rdf="http://www.w3.org/1999/02/22-rdf-syntax-ns#"
   xmlns:svg="http://www.w3.org/2000/svg"
   xmlns="http://www.w3.org/2000/svg"
   xmlns:sodipodi="http://sodipodi.sourceforge.net/DTD/sodipodi-0.dtd"
   xmlns:inkscape="http://www.inkscape.org/namespaces/inkscape"
   version="1.0"
   id="Layer_1"
   x="0px"
   y="0px"
   width="17px"
   height="16px"
   viewBox="0 0 17 16"
   enable-background="new 0 0 17 16"
   xml:space="preserve"
   inkscape:version="0.91+devel+osxmenu r12911"
   sodipodi:docname="default_1.svg"><metadata
     id="metadata67248"><rdf:RDF><cc:Work
         rdf:about=""><dc:format>image/svg+xml</dc:format><dc:type
           rdf:resource="http://purl.org/dc/dcmitype/StillImage" /><dc:title /></cc:Work></rdf:RDF></metadata><defs
     id="defs67246" /><sodipodi:namedview
     pagecolor="#ffffff"
     bordercolor="#666666"
     borderopacity="1"
     objecttolerance="10"
     gridtolerance="10"
     guidetolerance="10"
     inkscape:pageopacity="0"
     inkscape:pageshadow="2"
     inkscape:window-width="1280"
     inkscape:window-height="751"
     id="namedview67244"
     showgrid="false"
     inkscape:zoom="16"
     inkscape:cx="2.9067797"
     inkscape:cy="1.220339"
     inkscape:window-x="-30"
     inkscape:window-y="23"
     inkscape:window-maximized="0"
     inkscape:current-layer="Layer_1"
     inkscape:object-nodes="true"
     inkscape:snap-smooth-nodes="true"><inkscape:grid
       type="xygrid"
       id="grid6960" /></sodipodi:namedview><path
     fill="#E59063"
     d="M1.5,16C0.673095,16,0,15.3269043,0,14.5v-13C0,0.673105,0.673095,0,1.5,0h14  C16.3269005,0,17,0.673105,17,1.5v13c0,0.8269043-0.6730995,1.5-1.5,1.5H1.5z"
     id="path67242"
     style="fill:#50a882;fill-opacity:1" /><path
     style="fill:#000000;fill-opacity:1"
     id="path6958"
     d="M 2,15 C 1.173095,15 1,14 1,14 L 1,2 C 1,2 1,1 2,1 l 13,0 c 1,0 1,1 1,1 l 0,12 c 0,1 -1,1 -1,1 z"
     inkscape:connector-curvature="0"
     sodipodi:nodetypes="sccsscscs" /></svg>