<?xml version="1.0" encoding="UTF-8" standalone="no"?>
<!-- Generator: Adobe Illustrator 18.0.0, SVG Export Plug-In . SVG Version: 6.00 Build 0)  -->

<svg
   xmlns:dc="http://purl.org/dc/elements/1.1/"
   xmlns:cc="http://creativecommons.org/ns#"
   xmlns:rdf="http://www.w3.org/1999/02/22-rdf-syntax-ns#"
   xmlns:svg="http://www.w3.org/2000/svg"
   xmlns="http://www.w3.org/2000/svg"
   xmlns:sodipodi="http://sodipodi.sourceforge.net/DTD/sodipodi-0.dtd"
   xmlns:inkscape="http://www.inkscape.org/namespaces/inkscape"
   version="1.0"
   id="Layer_1"
   x="0px"
   y="0px"
   width="27px"
   height="16px"
   viewBox="0 0 27 16"
   enable-background="new 0 0 27 16"
   xml:space="preserve"
   inkscape:version="0.91+devel+osxmenu r12911"
   sodipodi:docname="default_3.svg"><metadata
     id="metadata68575"><rdf:RDF><cc:Work
         rdf:about=""><dc:format>image/svg+xml</dc:format><dc:type
           rdf:resource="http://purl.org/dc/dcmitype/StillImage" /><dc:title /></cc:Work></rdf:RDF></metadata><defs
     id="defs68573" /><sodipodi:namedview
     pagecolor="#ffffff"
     bordercolor="#666666"
     borderopacity="1"
     objecttolerance="10"
     gridtolerance="10"
     guidetolerance="10"
     inkscape:pageopacity="0"
     inkscape:pageshadow="2"
     inkscape:window-width="1239"
     inkscape:window-height="750"
     id="namedview68571"
     showgrid="false"
     inkscape:zoom="11"
     inkscape:cx="5.0909091"
     inkscape:cy="8"
     inkscape:window-x="0"
     inkscape:window-y="23"
     inkscape:window-maximized="0"
     inkscape:current-layer="Layer_1" /><path
     inkscape:connector-curvature="0"
     d="M 1.5,16 C 0.673095,16 0,15.326904 0,14.5 L 0,1.5 C 0,0.673105 0.673095,0 1.5,0 l 24,0 C 26.3269,0 27,0.673105 27,1.5 l 0,13 c 0,0.826904 -0.6731,1.5 -1.5,1.5 z"
     id="path67242"
     style="fill:#50a882;fill-opacity:1"
     sodipodi:nodetypes="sssssssss" /><path
     style="fill:#000000;fill-opacity:1"
     id="path6958"
     d="M 2,15 C 1.173095,15 1,14 1,14 L 1,2 C 1,2 1,1 2,1 l 23,0 c 1,0 1,1 1,1 l 0,12 c 0,1 -1,1 -1,1 z"
     inkscape:connector-curvature="0"
     sodipodi:nodetypes="sccsscscs" /></svg>