<?xml version="1.0" encoding="UTF-8" standalone="no"?>
<!-- Generator: Adobe Illustrator 18.0.0, SVG Export Plug-In . SVG Version: 6.00 Build 0)  -->

<svg
   xmlns:dc="http://purl.org/dc/elements/1.1/"
   xmlns:cc="http://creativecommons.org/ns#"
   xmlns:rdf="http://www.w3.org/1999/02/22-rdf-syntax-ns#"
   xmlns:svg="http://www.w3.org/2000/svg"
   xmlns="http://www.w3.org/2000/svg"
   xmlns:sodipodi="http://sodipodi.sourceforge.net/DTD/sodipodi-0.dtd"
   xmlns:inkscape="http://www.inkscape.org/namespaces/inkscape"
   version="1.1"
   id="Layer_1"
   x="0px"
   y="0px"
   width="40px"
   height="42px"
   viewBox="0 0 40 42"
   enable-background="new 0 0 40 42"
   xml:space="preserve"
   inkscape:version="0.91+devel+osxmenu r12911"
   sodipodi:docname="interstate_1.svg"><metadata
     id="metadata153308"><rdf:RDF><cc:Work
         rdf:about=""><dc:format>image/svg+xml</dc:format><dc:type
           rdf:resource="http://purl.org/dc/dcmitype/StillImage" /></cc:Work></rdf:RDF></metadata><defs
     id="defs153306" /><sodipodi:namedview
     pagecolor="#ffffff"
     bordercolor="#666666"
     borderopacity="1"
     objecttolerance="10"
     gridtolerance="10"
     guidetolerance="10"
     inkscape:pageopacity="0"
     inkscape:pageshadow="2"
     inkscape:window-width="938"
     inkscape:window-height="634"
     id="namedview153304"
     showgrid="false"
     inkscape:zoom="1"
     inkscape:cx="16.329776"
     inkscape:cy="24.838407"
     inkscape:window-x="190"
     inkscape:window-y="53"
     inkscape:window-maximized="0"
     inkscape:current-layer="Layer_1"
     inkscape:snap-intersection-paths="false"
     inkscape:object-nodes="true"
     inkscape:snap-smooth-nodes="true"><inkscape:grid
       type="xygrid"
       id="grid62011" /></sodipodi:namedview><g
     id="Layer_1_1_"><path
       display="none"
       fill="#FFFFFF"
       d="M20.4,40.5c-6-0.6-11.4-3.7-15.2-8.6C1.6,27.2-0.3,21.3,0,15.7c0.2-4.9,1.9-9.9,4.8-13.9   l0.7-1L6.7,1c0.6,0.1,1.2,0.2,1.8,0.3l0,0C9,1.4,9.6,1.5,10.1,1.5h0.1h0.1c1.1,0.2,2.2,0.3,3.3,0.3c2,0,4.2-0.3,6.5-1l0.6-0.2   l0.6,0.2C22,1,22.8,1.2,23.6,1.3h0.2h0.1c1.3,0.3,2.6,0.4,3.9,0.4c2,0,4.2-0.3,6.6-1l1.1-0.2l0.8,1.2c2.3,3.5,3.8,7.1,4.4,10.8v0.1   v0.1c0.2,2.1,0.3,3.9,0.2,5.9c-0.4,5-3,10.2-7.3,14.6c-3.9,4-8.7,6.7-12.8,7.2h-0.2L20.4,40.5z M4.8,13.5c-0.3,1.8-0.3,3.5,0,5.1   v0.1v0.1c1.1,10.4,8.9,16.5,15.8,17c8.6-1.8,16.3-11.4,15.9-19.9v-0.1c0-0.8,0-1.5-0.1-2.3C36.4,13.5,4.8,13.5,4.8,13.5z M34.6,8.1   c-0.3-0.7-0.7-1.4-1.2-2.2c-1.9,0.5-3.9,0.7-5.9,0.7c-1.8,0-3.7-0.2-5.5-0.6c-0.4-0.1-0.8-0.2-1.2-0.3c-0.1,0-0.3-0.1-0.4-0.1   c-2.2,0.7-4.7,1.1-7.1,1.1c-1.3,0-2.6-0.1-3.8-0.3C9,6.3,8.5,6.2,8,6.1C8,6,7.8,6,7.6,5.9C7.2,6.6,6.8,7.3,6.4,8.1H34.6z"
       id="path153294" /></g><path
     style="fill:#50a882;fill-opacity:1;stroke-width:1"
     d="M 7.375 3.2988281 L 0.28320312 10.699219 L 0.74609375 11.162109 C 2.904761 13.629157 1.9779838 16.404684 1.2070312 19.796875 C -0.02649288 24.11421 -1.5686496 29.509795 3.6738281 35.214844 C 7.0660195 38.761226 10.458946 38.916123 13.234375 39.070312 C 15.547233 39.378693 17.706355 39.532633 19.556641 41.537109 L 20.019531 42 L 20.634766 41.228516 C 22.330862 39.22404 24.644174 39.070206 26.957031 38.916016 C 29.886651 38.761825 33.279577 38.454585 36.517578 34.908203 C 41.451674 29.357344 40.063603 23.960019 38.830078 19.796875 C 37.750745 16.250493 36.980111 13.783348 39.292969 11.162109 L 39.755859 10.699219 L 33.125 3.2988281 L 32.507812 3.7617188 C 31.428479 5.1494334 29.424293 5.9199219 27.265625 5.9199219 C 24.952768 5.9199219 22.639243 4.9951366 20.634766 3.6074219 L 20.173828 3.2988281 L 19.865234 3.6074219 C 17.860758 5.1493271 15.547233 5.9199219 13.234375 5.9199219 C 10.921517 5.9199219 9.2256053 4.9952429 7.8378906 3.7617188 L 7.375 3.2988281 z "
     id="path77881" /><path
     d="m 20.018954,38.761999 c -2.004477,-1.541905 -4.317335,-1.850286 -6.321812,-2.004477 l -0.308381,0 C 10.767522,36.603332 8.146284,36.449141 5.216664,33.519521 0.899329,28.739615 2.287044,24.422281 3.366377,20.567518 l 0.308381,-1.079334 c 0.770953,-2.92962 1.387715,-5.85924 -0.308381,-8.634669 L 7.529521,6.5361804 c 1.696096,1.2335242 3.546382,1.8502862 5.70505,1.8502862 2.467048,0 4.934096,-0.7709526 7.092764,-2.1586672 2.312857,1.3877146 4.625715,2.1586672 6.938573,2.1586672 2.158667,0 4.163144,-0.616762 5.705049,-1.6960957 l 3.700573,4.1631441 c -2.158668,3.238001 -1.079334,6.630192 -0.154191,9.714003 1.387715,4.317334 2.158668,8.326288 -1.850286,12.952003 -2.467048,2.77543 -4.934097,3.083811 -7.863717,3.238001 -2.004476,0 -4.625715,0.154191 -6.784382,2.004477 z"
     id="path11814"
     inkscape:connector-curvature="0"
     style="fill:#000000;stroke-width:1;opacity:1" /><path
     style="fill:#50a882;fill-rule:evenodd;stroke:none;stroke-width:1px;stroke-linecap:butt;stroke-linejoin:miter;stroke-opacity:1;fill-opacity:1"
     d="M 4,17 36,17 38,11 33,6 7,6 2,11 Z"
     id="path11818"
     inkscape:connector-curvature="0" /></svg>