<?xml version="1.0" encoding="UTF-8" standalone="no"?>
<!-- Generator: Adobe Illustrator 18.0.0, SVG Export Plug-In . SVG Version: 6.00 Build 0)  -->

<svg
   xmlns:dc="http://purl.org/dc/elements/1.1/"
   xmlns:cc="http://creativecommons.org/ns#"
   xmlns:rdf="http://www.w3.org/1999/02/22-rdf-syntax-ns#"
   xmlns:svg="http://www.w3.org/2000/svg"
   xmlns="http://www.w3.org/2000/svg"
   xmlns:sodipodi="http://sodipodi.sourceforge.net/DTD/sodipodi-0.dtd"
   xmlns:inkscape="http://www.inkscape.org/namespaces/inkscape"
   version="1.1"
   x="0px"
   y="0px"
   width="46"
   height="44"
   viewBox="0 0 46 44"
   enable-background="new 0 0 46 44"
   xml:space="preserve"
   id="svg153971"
   inkscape:version="0.91+devel+osxmenu r12911"
   sodipodi:docname="interstate_2.svg"><metadata
     id="metadata153989"><rdf:RDF><cc:Work
         rdf:about=""><dc:format>image/svg+xml</dc:format><dc:type
           rdf:resource="http://purl.org/dc/dcmitype/StillImage" /></cc:Work></rdf:RDF></metadata><defs
     id="defs153987" /><sodipodi:namedview
     pagecolor="#ffffff"
     bordercolor="#666666"
     borderopacity="1"
     objecttolerance="10"
     gridtolerance="10"
     guidetolerance="10"
     inkscape:pageopacity="0"
     inkscape:pageshadow="2"
     inkscape:window-width="1038"
     inkscape:window-height="718"
     id="namedview153985"
     showgrid="false"
     inkscape:zoom="1"
     inkscape:cx="53.428168"
     inkscape:cy="22"
     inkscape:window-x="248"
     inkscape:window-y="70"
     inkscape:window-maximized="0"
     inkscape:current-layer="svg153971"><inkscape:grid
       type="xygrid"
       id="grid12906" /></sodipodi:namedview><path
     d="M 22.972385,41.292757 C 20.671228,39.397686 18.099347,39.262324 15.662828,38.9916 l -0.406086,0 C 11.601963,38.856238 8.6239953,38.450151 5.5106654,35.472183 0.36690292,30.328421 1.991249,25.590745 3.2095085,21.394518 L 3.4802328,20.717707 C 4.427768,17.469015 5.3753032,14.220323 3.2095085,11.242355 l 5.4144868,-5.0084 c 2.0304327,1.353621 4.1962277,2.165794 6.6327467,2.165794 2.842605,0 5.549849,-0.812173 8.12173,-2.301157 2.571881,1.488984 5.414487,2.301157 8.12173,2.301157 2.436519,-0.135362 4.873038,-0.947535 6.497384,-2.165794 l 4.873038,5.0084 c -2.436519,3.248692 -1.353621,6.768108 -0.270724,10.0168 l 0,0.135363 c 1.488984,4.737676 2.436519,9.069265 -2.165795,13.942303 -3.248692,3.248692 -6.768108,3.384054 -9.475352,3.519417 -2.571881,0.135362 -5.414486,0.270724 -7.986368,2.436519 z"
     id="path12911"
     inkscape:connector-curvature="0"
     style="opacity:1;fill:#000000;fill-opacity:1;stroke-width:0.99999994" /><g
     id="Layer_1"><path
       display="none"
       fill="#FFFFFF"
       d="M20.4,40.5c-6-0.6-11.4-3.7-15.2-8.6C1.6,27.2-0.3,21.3,0,15.7c0.2-4.9,1.9-9.9,4.8-13.9   l0.7-1L6.7,1c0.6,0.1,1.2,0.2,1.8,0.3l0,0C9,1.4,9.6,1.5,10.1,1.5h0.1h0.1c1.1,0.2,2.2,0.3,3.3,0.3c2,0,4.2-0.3,6.5-1l0.6-0.2   l0.6,0.2C22,1,22.8,1.2,23.6,1.3h0.2h0.1c1.3,0.3,2.6,0.4,3.9,0.4c2,0,4.2-0.3,6.6-1l1.1-0.2l0.8,1.2c2.3,3.5,3.8,7.1,4.4,10.8v0.1   v0.1c0.2,2.1,0.3,3.9,0.2,5.9c-0.4,5-3,10.2-7.3,14.6c-3.9,4-8.7,6.7-12.8,7.2h-0.2L20.4,40.5z M4.8,13.5c-0.3,1.8-0.3,3.5,0,5.1   v0.1v0.1c1.1,10.4,8.9,16.5,15.8,17c8.6-1.8,16.3-11.4,15.9-19.9v-0.1c0-0.8,0-1.5-0.1-2.3C36.4,13.5,4.8,13.5,4.8,13.5z M34.6,8.1   c-0.3-0.7-0.7-1.4-1.2-2.2c-1.9,0.5-3.9,0.7-5.9,0.7c-1.8,0-3.7-0.2-5.5-0.6c-0.4-0.1-0.8-0.2-1.2-0.3c-0.1,0-0.3-0.1-0.4-0.1   c-2.2,0.7-4.7,1.1-7.1,1.1c-1.3,0-2.6-0.1-3.8-0.3C9,6.3,8.5,6.2,8,6.1C8,6,7.8,6,7.6,5.9C7.2,6.6,6.8,7.3,6.4,8.1H34.6z"
       id="path153974" /></g><path
     style="fill:#50a882;fill-opacity:1;stroke-width:0.99999994"
     d="M 8.4882812 3.390625 L 0.3671875 11.107422 L 0.90820312 11.648438 C 3.4800843 14.220319 2.396754 17.062018 1.4492188 20.716797 C -0.03976519 25.183748 -1.7996855 30.870237 4.15625 36.826172 C 8.0817529 40.480951 11.872402 40.751357 15.121094 40.886719 C 17.828338 41.157443 20.265846 41.29319 22.431641 43.458984 L 22.972656 44 L 23.785156 43.322266 C 25.815589 41.156471 28.386506 41.022081 31.09375 40.886719 C 34.477804 40.751357 38.403816 40.481547 42.058594 36.691406 C 47.608443 30.73547 46.119842 25.183748 44.630859 20.716797 C 43.412599 17.062018 42.599994 14.35568 45.171875 11.648438 L 45.712891 11.107422 L 38.132812 3.390625 L 37.457031 3.9335938 C 36.10341 5.4225777 33.801753 6.234375 31.365234 6.234375 C 28.793353 6.234375 26.086313 5.2858589 23.785156 3.796875 L 23.242188 3.5273438 L 22.837891 3.796875 C 20.536734 5.4212211 17.963102 6.234375 15.255859 6.234375 C 12.548615 6.234375 10.653643 5.2872153 9.0292969 3.9335938 L 8.4882812 3.390625 z M 8.6230469 6.234375 C 8.6412466 6.2465081 8.6595128 6.2574853 8.6777344 6.2695312 L 7.7519531 7.0390625 L 8.6230469 6.234375 z M 4.390625 17 L 41.503906 17 C 41.692778 18.441335 42.138033 19.875035 42.599609 21.259766 L 42.599609 21.394531 C 44.088593 26.132207 45.035908 30.4629 40.433594 35.335938 C 37.184902 38.584629 33.666228 38.720106 30.958984 38.855469 C 28.387103 38.990831 25.544538 39.127174 22.972656 41.292969 C 20.671499 39.397898 18.098628 39.262912 15.662109 38.992188 L 15.255859 38.992188 C 11.60108 38.856825 8.6230955 38.450624 5.5097656 35.472656 C 0.36600318 30.328894 1.9907249 25.590758 3.2089844 21.394531 L 3.4804688 20.716797 C 3.8433258 19.472716 4.2027475 18.228743 4.390625 17 z "
     id="path78509" /></svg>