<?xml version="1.0" encoding="UTF-8" standalone="no"?>
<!-- Generator: Adobe Illustrator 18.0.0, SVG Export Plug-In . SVG Version: 6.00 Build 0)  -->

<svg
   xmlns:dc="http://purl.org/dc/elements/1.1/"
   xmlns:cc="http://creativecommons.org/ns#"
   xmlns:rdf="http://www.w3.org/1999/02/22-rdf-syntax-ns#"
   xmlns:svg="http://www.w3.org/2000/svg"
   xmlns="http://www.w3.org/2000/svg"
   xmlns:sodipodi="http://sodipodi.sourceforge.net/DTD/sodipodi-0.dtd"
   xmlns:inkscape="http://www.inkscape.org/namespaces/inkscape"
   version="1.1"
   id="Layer_1"
   x="0px"
   y="0px"
   width="50px"
   height="43px"
   viewBox="0 0 50 43"
   enable-background="new 0 0 50 43"
   xml:space="preserve"
   inkscape:version="0.91+devel+osxmenu r12911"
   sodipodi:docname="interstate_3.svg"><metadata
     id="metadata154618"><rdf:RDF><cc:Work
         rdf:about=""><dc:format>image/svg+xml</dc:format><dc:type
           rdf:resource="http://purl.org/dc/dcmitype/StillImage" /></cc:Work></rdf:RDF></metadata><defs
     id="defs154616" /><sodipodi:namedview
     pagecolor="#ffffff"
     bordercolor="#666666"
     borderopacity="1"
     objecttolerance="10"
     gridtolerance="10"
     guidetolerance="10"
     inkscape:pageopacity="0"
     inkscape:pageshadow="2"
     inkscape:window-width="1098"
     inkscape:window-height="735"
     id="namedview154614"
     showgrid="false"
     inkscape:zoom="2.8284271"
     inkscape:cx="19.311678"
     inkscape:cy="28.788136"
     inkscape:window-x="182"
     inkscape:window-y="34"
     inkscape:window-maximized="0"
     inkscape:current-layer="Layer_1"><inkscape:grid
       type="xygrid"
       id="grid14059" /></sodipodi:namedview><path
     style="fill:#000000;fill-opacity:1;stroke-width:1;opacity:1"
     inkscape:connector-curvature="0"
     id="path79138"
     d="M 25.016555,40.17592 C 22.326151,38.023597 17.617943,36.812915 14.927539,36.409354 l -0.134521,0 c -0.26904,0 -0.53808,0 -0.672601,0 -0.538081,0 -0.941641,0 -1.479722,0 -0.403561,0 -0.941642,0 -1.479722,0 -2.0178038,0 -3.9010868,-0.403561 -5.6498498,-2.152323 -4.84272798,-4.977249 -3.497525,-9.416416 -2.152323,-13.721063 l 0.13452,-0.403561 c 0.941642,-3.228485 1.883283,-6.59149 -0.26904,-9.685455 l 5.246288,-4.977249 c 1.7487628,1.479723 5.1117678,3.363006 7.8021728,3.363006 2.959445,0 6.726011,-2.152324 9.147375,-3.632046 2.017803,1.210682 6.18793,3.632046 9.281895,3.632046 2.690404,0 5.91889,-1.883283 7.667653,-3.363006 l 4.708205,4.842728 c -2.28684,3.228486 -1.3452,6.591491 -0.26904,9.819976 l 0.13452,0.403561 c 1.21068,4.170127 2.69041,8.743814 -2.0178,13.855583 -1.748764,1.883283 -3.497527,2.152323 -5.64985,2.152323 -0.403561,0 -0.941642,0 -1.345203,0 -0.538081,0 -0.941641,0 -1.479722,0 -0.269041,0 -0.538081,0 -0.672601,0 -3.093965,0.13452 -8.071213,1.479723 -10.761618,3.632046 z" /><path
     display="none"
     fill="#FFFFFF"
     d="M15.7,34.6C11.1,34.2,6.9,31.8,4,28c-2.8-3.6-4.2-8.2-4-12.5c0.2-3.8,1.5-7.6,3.7-10.7  l0.5-0.8l0.9,0.2c0.5,0.1,0.9,0.2,1.4,0.2l0,0c0.4,0.1,0.8,0.2,1.2,0.2h0.1h0.1c0.8,0.2,1.7,0.2,2.5,0.2c1.5,0,3.2-0.2,5-0.8  l0.5-0.2l0.5,0.2c0.5,0.2,1.2,0.3,1.8,0.4h0.2h0.1c1,0.2,2,0.3,3,0.3c1.5,0,3.2-0.2,5.1-0.8l0.8-0.2l0.6,0.9  c1.8,2.7,2.9,5.5,3.4,8.3v0.1v0.1c0.2,1.6,0.2,3,0.2,4.5c-0.3,3.8-2.3,7.8-5.6,11.2c-3,3.1-6.7,5.2-9.8,5.5h-0.2L15.7,34.6z   M3.7,13.8c-0.2,1.4-0.2,2.7,0,3.9v0.1v0.1c0.8,8,6.8,12.7,12.2,13.1c6.6-1.4,12.5-8.8,12.2-15.3v-0.1c0-0.6,0-1.2-0.1-1.8  C28,13.8,3.7,13.8,3.7,13.8z M26.6,9.7c-0.2-0.5-0.5-1.1-0.9-1.7c-1.5,0.4-3,0.5-4.5,0.5c-1.4,0-2.8-0.2-4.2-0.5  C16.6,8,16.3,7.9,16,7.8c-0.1,0-0.2-0.1-0.3-0.1c-1.7,0.5-3.6,0.8-5.5,0.8c-1,0-2-0.1-2.9-0.2C6.9,8.3,6.5,8.2,6.2,8.2  C6.2,8.1,6,8.1,5.8,8C5.5,8.5,5.2,9.1,4.9,9.7H26.6z"
     id="path154604" /><path
     style="fill:#50a882;fill-opacity:1;stroke-width:1"
     d="M 8.4707031 2.6445312 L 0.53320312 10.3125 L 0.80078125 10.851562 C 3.3566652 13.407447 2.4160058 16.231235 1.3398438 19.863281 C -0.00535823 24.302448 -1.75312 29.952204 4.03125 35.871094 C 7.797816 39.50314 11.429718 38.42798 14.658203 38.5625 C 17.348608 38.831541 22.460713 40.312521 24.478516 42.464844 L 25.015625 43 L 25.6875 42.328125 C 27.705303 40.175801 32.819362 38.697021 35.509766 38.5625 C 38.738252 38.42798 42.504669 39.504848 46.136719 35.738281 C 51.652039 29.819392 50.038569 24.302448 48.693359 19.863281 C 47.617199 16.231235 46.672636 13.541967 49.228516 10.851562 L 49.767578 10.3125 L 42.369141 2.6445312 L 41.830078 3.1816406 C 40.484876 4.5268426 36.989723 6.8164062 34.568359 6.8164062 C 32.012475 6.8164062 27.974343 4.5285511 25.6875 3.0488281 L 25.419922 2.78125 L 25.015625 3.0488281 C 22.728781 4.5285511 18.827368 6.8164062 16.271484 6.8164062 C 13.85012 6.8164062 10.354967 4.5268426 9.0097656 3.1816406 L 8.4707031 2.6445312 z M 4.5019531 14 L 45.703125 14 C 45.519552 16.052261 46.137475 18.117517 46.808594 20.130859 L 46.943359 20.537109 C 48.154039 24.707236 49.633991 29.28081 44.925781 34.392578 C 43.177017 36.275861 41.429668 36.544922 39.277344 36.544922 L 37.931641 36.544922 L 36.449219 36.544922 L 35.777344 36.544922 C 32.683379 36.679442 27.706029 38.023459 25.015625 40.175781 C 22.32522 38.023458 17.616186 36.813717 14.925781 36.410156 L 14.792969 36.410156 L 14.119141 36.410156 L 12.640625 36.410156 L 11.162109 36.410156 C 9.1443056 36.410156 7.2585286 36.004622 5.5097656 34.255859 C 0.66703764 29.278611 2.0122199 24.841756 3.3574219 20.537109 L 3.4921875 20.130859 C 4.0826064 18.106564 4.6739018 16.030278 4.5019531 14 z "
     id="path79136" /></svg>