<?xml version="1.0" encoding="UTF-8" standalone="no"?>
<!-- Generator: Adobe Illustrator 18.0.0, SVG Export Plug-In . SVG Version: 6.00 Build 0)  -->

<svg
   xmlns:dc="http://purl.org/dc/elements/1.1/"
   xmlns:cc="http://creativecommons.org/ns#"
   xmlns:rdf="http://www.w3.org/1999/02/22-rdf-syntax-ns#"
   xmlns:svg="http://www.w3.org/2000/svg"
   xmlns="http://www.w3.org/2000/svg"
   xmlns:sodipodi="http://sodipodi.sourceforge.net/DTD/sodipodi-0.dtd"
   xmlns:inkscape="http://www.inkscape.org/namespaces/inkscape"
   version="1.0"
   id="Layer_1"
   x="0px"
   y="0px"
   width="18px"
   height="18px"
   viewBox="0 0 18 18"
   enable-background="new 0 0 18 18"
   xml:space="preserve"
   inkscape:version="0.91+devel+osxmenu r12911"
   sodipodi:docname="rail.svg"><metadata
     id="metadata117640"><rdf:RDF><cc:Work
         rdf:about=""><dc:format>image/svg+xml</dc:format><dc:type
           rdf:resource="http://purl.org/dc/dcmitype/StillImage" /></cc:Work></rdf:RDF></metadata><defs
     id="defs117638" /><sodipodi:namedview
     pagecolor="#ffffff"
     bordercolor="#666666"
     borderopacity="1"
     objecttolerance="10"
     gridtolerance="10"
     guidetolerance="10"
     inkscape:pageopacity="0"
     inkscape:pageshadow="2"
     inkscape:window-width="1107"
     inkscape:window-height="686"
     id="namedview117636"
     showgrid="false"
     inkscape:zoom="18.541911"
     inkscape:cx="13.080508"
     inkscape:cy="3.6497343"
     inkscape:window-x="35"
     inkscape:window-y="23"
     inkscape:window-maximized="0"
     inkscape:current-layer="Layer_1" /><path
     style="color:#000000;font-style:normal;font-variant:normal;font-weight:normal;font-stretch:normal;font-size:medium;line-height:normal;font-family:sans-serif;text-indent:0;text-align:start;text-decoration:none;text-decoration-line:none;text-decoration-style:solid;text-decoration-color:#000000;letter-spacing:normal;word-spacing:normal;text-transform:none;direction:ltr;block-progression:tb;writing-mode:lr-tb;baseline-shift:baseline;text-anchor:start;white-space:normal;shape-padding:0;clip-rule:nonzero;display:inline;overflow:visible;visibility:visible;opacity:1;isolation:auto;mix-blend-mode:normal;color-interpolation:sRGB;color-interpolation-filters:linearRGB;solid-color:#000000;solid-opacity:1;fill:#000000;fill-opacity:1;fill-rule:nonzero;stroke:none;stroke-width:2;stroke-linecap:butt;stroke-linejoin:miter;stroke-miterlimit:4;stroke-dasharray:none;stroke-dashoffset:0;stroke-opacity:1;color-rendering:auto;image-rendering:auto;shape-rendering:auto;text-rendering:auto;enable-background:accumulate"
     d="m 5.9980469,1 c -1.3362407,0 -2.5,1.053488 -2.5,2.404297 l 0,7.689453 c 0,0.830577 0.5008855,1.439933 1.1503906,1.871094 L 2.1308594,18 l 4.4863281,0 1.5,-2.998047 1.765625,0 L 11.382812,18 l 4.486329,0 -2.517579,-5.035156 c 0.649507,-0.431152 1.150391,-1.040488 1.150391,-1.871094 l 0,-7.689453 C 14.501953,2.053441 13.338173,1 12.001953,1 Z"
     id="path15628"
     inkscape:connector-curvature="0"
     sodipodi:nodetypes="sssccccccccssss" /><path
     d="m 5.9986325,2.0000002 c -0.831422,0 -1.500683,0.6295759 -1.500683,1.4049682 l 0,7.6880126 c 0,0.775766 0.669261,1.408386 1.500683,1.408388 L 3.7493165,17 l 2.249316,0 1.500684,-2.997949 3.0013665,0 L 12.001369,17 l 2.249315,0 -2.249315,-4.498631 c 0.831368,0 1.500683,-0.632622 1.500683,-1.408388 l 0,-7.6880126 c 0,-0.7753925 -0.669315,-1.4049682 -1.500683,-1.4049682 l -6.0027365,0 z m 0.752052,1.5006837 4.4986315,0 c 0.415337,0 0.752053,0.3332954 0.752053,0.7486327 l 0,1.5006836 c 0,0.4157111 -0.336715,0.7486327 -0.752053,0.7486327 l -4.4986315,0 c -0.415338,0 -0.752052,-0.3329216 -0.752052,-0.7486327 l 0,-1.5006836 c 0,-0.4153375 0.336714,-0.7486327 0.752052,-0.7486327 z m 2.249316,4.6866455 A 1.3126709,1.3126709 0 0 1 10.312671,9.5 1.3126709,1.3126709 0 0 1 9.0000005,10.812671 1.3126709,1.3126709 0 0 1 7.6873295,9.5 1.3126709,1.3126709 0 0 1 9.0000005,8.1873294 Z"
     id="path117632"
     style="fill:#50a882;fill-opacity:1;stroke-width:1"
     inkscape:connector-curvature="0" /></svg>