<?xml version="1.0" encoding="UTF-8" standalone="no"?>
<!-- Generator: Adobe Illustrator 18.0.0, SVG Export Plug-In . SVG Version: 6.00 Build 0)  -->

<svg
   xmlns:dc="http://purl.org/dc/elements/1.1/"
   xmlns:cc="http://creativecommons.org/ns#"
   xmlns:rdf="http://www.w3.org/1999/02/22-rdf-syntax-ns#"
   xmlns:svg="http://www.w3.org/2000/svg"
   xmlns="http://www.w3.org/2000/svg"
   xmlns:sodipodi="http://sodipodi.sourceforge.net/DTD/sodipodi-0.dtd"
   xmlns:inkscape="http://www.inkscape.org/namespaces/inkscape"
   version="1.1"
   id="Layer_1"
   x="0px"
   y="0px"
   width="34px"
   height="30px"
   viewBox="0 0 34 30"
   enable-background="new 0 0 34 30"
   xml:space="preserve"
   inkscape:version="0.91+devel+osxmenu r12911"
   sodipodi:docname="us_highway_2.svg"><metadata
     id="metadata78517"><rdf:RDF><cc:Work
         rdf:about=""><dc:format>image/svg+xml</dc:format><dc:type
           rdf:resource="http://purl.org/dc/dcmitype/StillImage" /></cc:Work></rdf:RDF></metadata><defs
     id="defs78515" /><sodipodi:namedview
     pagecolor="#ffffff"
     bordercolor="#666666"
     borderopacity="1"
     objecttolerance="10"
     gridtolerance="10"
     guidetolerance="10"
     inkscape:pageopacity="0"
     inkscape:pageshadow="2"
     inkscape:window-width="945"
     inkscape:window-height="556"
     id="namedview78513"
     showgrid="false"
     inkscape:zoom="7.8666667"
     inkscape:cx="23.301993"
     inkscape:cy="7.9323775"
     inkscape:window-x="0"
     inkscape:window-y="23"
     inkscape:window-maximized="0"
     inkscape:current-layer="Layer_1" /><path
     style="fill:#50a882;fill-opacity:1"
     inkscape:connector-curvature="0"
     id="path78509"
     d="M 17,30 16.6,29.6 C 15,28 13.2,27.9 11.2,27.7 8.8,27.6 6,27.4 3.1,24.7 -1.3,20.3 0,16.1 1.1,12.8 1.8,10.1 2.6,8 0.7,6.1 L 0.3,5.7 6.3,0 6.7,0.4 c 1.2,1 2.6,1.7 4.6,1.7 2,0 3.9,-0.6 5.6,-1.8 l 0.3,-0.2 0.4,0.2 c 1.7,1.1 3.7,1.8 5.6,1.8 1.8,0 3.5,-0.6 4.5,-1.7 L 28.2,0 33.8,5.7 33.4,6.1 c -1.9,2 -1.3,4 -0.4,6.7 1.1,3.3 2.2,7.4 -1.9,11.8 -2.7,2.8 -5.6,3 -8.1,3.1 -2,0.1 -3.9,0.2 -5.4,1.8 L 17,30 Z" /><path
     style="fill:#000000"
     inkscape:connector-curvature="0"
     id="path78511"
     d="m 17,28 c -1.7,-1.4 -3.6,-1.5 -5.4,-1.7 l -0.3,0 C 8.6,26.2 6.4,25.9 4.1,23.7 0.3,19.9 1.5,16.4 2.4,13.3 L 2.6,12.8 C 3.3,10.4 4,8 2.4,5.8 l 4,-3.7 c 1.5,1 3.1,1.6 4.9,1.6 2.1,0 4.1,-0.6 6,-1.7 1.9,1.1 4,1.7 6,1.7 1.8,-0.1 3.6,-0.7 4.8,-1.6 l 3.6,3.7 c -1.8,2.4 -1,5 -0.2,7.4 l 0,0.1 c 1.1,3.5 1.8,6.7 -1.6,10.3 -2.4,2.4 -5,2.5 -7,2.6 -1.9,0.1 -4,0.2 -5.9,1.8 z" /></svg>