<?xml version="1.0" encoding="UTF-8" standalone="no"?>
<!-- Generator: Adobe Illustrator 18.0.0, SVG Export Plug-In . SVG Version: 6.00 Build 0)  -->

<svg
   xmlns:dc="http://purl.org/dc/elements/1.1/"
   xmlns:cc="http://creativecommons.org/ns#"
   xmlns:rdf="http://www.w3.org/1999/02/22-rdf-syntax-ns#"
   xmlns:svg="http://www.w3.org/2000/svg"
   xmlns="http://www.w3.org/2000/svg"
   xmlns:sodipodi="http://sodipodi.sourceforge.net/DTD/sodipodi-0.dtd"
   xmlns:inkscape="http://www.inkscape.org/namespaces/inkscape"
   version="1.1"
   id="Layer_1"
   x="0px"
   y="0px"
   width="26px"
   height="29px"
   viewBox="0 0 26 29"
   enable-background="new 0 0 26 29"
   xml:space="preserve"
   inkscape:version="0.91+devel+osxmenu r12911"
   sodipodi:docname="us_highway_1.svg"><metadata
     id="metadata77889"><rdf:RDF><cc:Work
         rdf:about=""><dc:format>image/svg+xml</dc:format><dc:type
           rdf:resource="http://purl.org/dc/dcmitype/StillImage" /></cc:Work></rdf:RDF></metadata><defs
     id="defs77887" /><sodipodi:namedview
     pagecolor="#ffffff"
     bordercolor="#666666"
     borderopacity="1"
     objecttolerance="10"
     gridtolerance="10"
     guidetolerance="10"
     inkscape:pageopacity="0"
     inkscape:pageshadow="2"
     inkscape:window-width="1280"
     inkscape:window-height="750"
     id="namedview77885"
     showgrid="false"
     inkscape:zoom="8.137931"
     inkscape:cx="-8.197034"
     inkscape:cy="14.5"
     inkscape:window-x="0"
     inkscape:window-y="23"
     inkscape:window-maximized="0"
     inkscape:current-layer="Layer_1" /><path
     style="fill:#50a882;fill-opacity:1"
     inkscape:connector-curvature="0"
     id="path77881"
     d="M 13,27.1 12.7,26.8 C 11.5,25.5 10.1,25.4 8.6,25.2 6.8,25.1 4.6,25 2.4,22.7 -1,19 0,15.5 0.8,12.7 1.3,10.5 1.9,8.7 0.5,7.1 L 0.2,6.8 4.8,2 5.1,2.3 c 0.9,0.8 2,1.4 3.5,1.4 1.5,0 3,-0.5 4.3,-1.5 L 13.1,2 13.4,2.2 c 1.3,0.9 2.8,1.5 4.3,1.5 1.4,0 2.7,-0.5 3.4,-1.4 L 21.5,2 25.8,6.8 25.5,7.1 c -1.5,1.7 -1,3.3 -0.3,5.6 0.8,2.7 1.7,6.2 -1.5,9.8 -2.1,2.3 -4.3,2.5 -6.2,2.6 -1.5,0.1 -3,0.2 -4.1,1.5 L 13,27.1 Z" /><path
     style="fill:#000000"
     inkscape:connector-curvature="0"
     id="path77883"
     d="M 13,25 C 11.7,24 10.2,23.8 8.9,23.7 l -0.2,0 C 7,23.6 5.3,23.5 3.4,21.6 0.6,18.5 1.5,15.7 2.2,13.2 L 2.4,12.5 C 2.9,10.6 3.3,8.7 2.2,6.9 L 4.9,4.1 c 1.1,0.8 2.3,1.2 3.7,1.2 1.6,0 3.2,-0.5 4.6,-1.4 1.5,0.9 3,1.4 4.5,1.4 1.4,0 2.7,-0.4 3.7,-1.1 l 2.4,2.7 c -1.4,2.1 -0.7,4.3 -0.1,6.3 0.9,2.8 1.4,5.4 -1.2,8.4 -1.6,1.8 -3.2,2 -5.1,2.1 -1.3,0 -3,0.1 -4.4,1.3 z" /></svg>