<?xml version="1.0" encoding="UTF-8" standalone="no"?>
<!-- Generator: Adobe Illustrator 18.0.0, SVG Export Plug-In . SVG Version: 6.00 Build 0)  -->

<svg
   xmlns:dc="http://purl.org/dc/elements/1.1/"
   xmlns:cc="http://creativecommons.org/ns#"
   xmlns:rdf="http://www.w3.org/1999/02/22-rdf-syntax-ns#"
   xmlns:svg="http://www.w3.org/2000/svg"
   xmlns="http://www.w3.org/2000/svg"
   xmlns:sodipodi="http://sodipodi.sourceforge.net/DTD/sodipodi-0.dtd"
   xmlns:inkscape="http://www.inkscape.org/namespaces/inkscape"
   version="1.1"
   id="Layer_1"
   width="37"
   height="30"
   viewBox="0 0 37 30"
   enable-background="new 0 0 37 30"
   xml:space="preserve"
   inkscape:version="0.91+devel+osxmenu r12911"
   sodipodi:docname="us_highway_3.svg"><metadata
     id="metadata79144"><rdf:RDF><cc:Work
         rdf:about=""><dc:format>image/svg+xml</dc:format><dc:type
           rdf:resource="http://purl.org/dc/dcmitype/StillImage" /></cc:Work></rdf:RDF></metadata><defs
     id="defs79142" /><sodipodi:namedview
     pagecolor="#ffffff"
     bordercolor="#666666"
     borderopacity="1"
     objecttolerance="10"
     gridtolerance="10"
     guidetolerance="10"
     inkscape:pageopacity="0"
     inkscape:pageshadow="2"
     inkscape:window-width="1146"
     inkscape:window-height="678"
     id="namedview79140"
     showgrid="false"
     inkscape:zoom="7.8666667"
     inkscape:cx="6.7415255"
     inkscape:cy="15"
     inkscape:window-x="0"
     inkscape:window-y="23"
     inkscape:window-maximized="0"
     inkscape:current-layer="Layer_1" /><path
     style="fill:#50a882;fill-opacity:1"
     inkscape:connector-curvature="0"
     id="path79136"
     d="M 18.5,30 18.1,29.6 C 16.6,28 12.8,26.9 10.8,26.7 8.4,26.6 5.7,27.4 2.9,24.7 -1.4,20.3 -0.1,16.1 0.9,12.8 1.7,10.1 2.4,8 0.5,6.1 L 0.3,5.7 6.2,0 6.6,0.4 c 1,1 3.6,2.7 5.4,2.7 1.9,0 4.8,-1.7 6.5,-2.8 L 18.8,0.1 19,0.3 c 1.7,1.1 4.7,2.8 6.6,2.8 1.8,0 4.4,-1.7 5.4,-2.7 L 31.4,0 36.9,5.7 36.5,6.1 c -1.9,2 -1.2,4 -0.4,6.7 1,3.3 2.2,7.4 -1.9,11.8 -2.7,2.8 -5.5,2 -7.9,2.1 -2,0.1 -5.8,1.2 -7.3,2.8 L 18.5,30 Z" /><path
     style="fill:#000000"
     inkscape:connector-curvature="0"
     id="path79138"
     d="M 18.5,27.9 C 16.5,26.3 13,25.4 11,25.1 l -0.1,0 c -0.2,0 -0.4,0 -0.5,0 -0.4,0 -0.7,0 -1.1,0 -0.3,0 -0.7,0 -1.1,0 C 6.7,25.1 5.3,24.8 4,23.5 0.4,19.8 1.4,16.5 2.4,13.3 L 2.5,13 C 3.2,10.6 3.9,8.1 2.3,5.8 L 6.2,2.1 c 1.3,1.1 3.8,2.5 5.8,2.5 2.2,0 5,-1.6 6.8,-2.7 1.5,0.9 4.6,2.7 6.9,2.7 2,0 4.4,-1.4 5.7,-2.5 l 3.5,3.6 c -1.7,2.4 -1,4.9 -0.2,7.3 l 0.1,0.3 c 0.9,3.1 2,6.5 -1.5,10.3 -1.3,1.4 -2.6,1.6 -4.2,1.6 -0.3,0 -0.7,0 -1,0 -0.4,0 -0.7,0 -1.1,0 -0.2,0 -0.4,0 -0.5,0 -2.3,0.1 -6,1.1 -8,2.7 z" /></svg>