<?xml version="1.0" encoding="utf-8"?>
<!-- Generator: Adobe Illustrator 17.1.0, SVG Export Plug-In . SVG Version: 6.00 Build 0)  -->
<!DOCTYPE svg PUBLIC "-//W3C//DTD SVG 1.1//EN" "http://www.w3.org/Graphics/SVG/1.1/DTD/svg11.dtd">
<svg version="1.1" id="Layer_1" xmlns="http://www.w3.org/2000/svg" xmlns:xlink="http://www.w3.org/1999/xlink" x="0px" y="0px"
	 width="9px" height="9px" viewBox="0 0 9 9" enable-background="new 0 0 9 9" xml:space="preserve">
<path opacity="0.25" fill="#2E2E2E" enable-background="new    " d="M4.5,8C2.6,8,1,6.4,1,4.5S2.6,1,4.5,1S8,2.6,8,4.5S6.4,8,4.5,8z
	"/>
<path opacity="0.5" fill="#2E2E2E" enable-background="new    " d="M4.5,7.5c-1.7,0-3-1.4-3-3s1.3-3,3-3s3,1.3,3,3S6.1,7.5,4.5,7.5z
	"/>
<path opacity="0.75" fill="#2E2E2E" enable-background="new    " d="M4.5,7C3.1,7,2,5.9,2,4.5S3.1,2,4.5,2S7,3.1,7,4.5S5.9,7,4.5,7z
	"/>
<circle fill="#2E2E2E" cx="4.5" cy="4.5" r="2"/>
<circle fill="#FFFFFF" cx="4.5" cy="4.5" r="1.5"/>
</svg>
