<?xml version="1.0" encoding="utf-8"?>
<!-- Generator: Adobe Illustrator 17.1.0, SVG Export Plug-In . SVG Version: 6.00 Build 0)  -->
<!DOCTYPE svg PUBLIC "-//W3C//DTD SVG 1.1//EN" "http://www.w3.org/Graphics/SVG/1.1/DTD/svg11.dtd">
<svg version="1.1" id="Layer_1" xmlns="http://www.w3.org/2000/svg" xmlns:xlink="http://www.w3.org/1999/xlink" x="0px" y="0px"
	 width="10px" height="10px" viewBox="0 0 10 10" enable-background="new 0 0 10 10" xml:space="preserve">
<path opacity="0.25" fill="#2E2E2E" enable-background="new    " d="M5,9C2.8,9,1,7.2,1,5s1.8-4,4-4s4,1.8,4,4S7.2,9,5,9z"/>
<path opacity="0.5" fill="#2E2E2E" enable-background="new    " d="M5,8.5C3.1,8.5,1.5,6.9,1.5,5S3.1,1.5,5,1.5S8.5,3.1,8.5,5
	S6.9,8.5,5,8.5z"/>
<path opacity="0.75" fill="#2E2E2E" enable-background="new    " d="M5,8C3.4,8,2,6.6,2,5s1.4-3,3-3s3,1.4,3,3S6.6,8,5,8z"/>
<circle fill="#2E2E2E" cx="5" cy="5" r="2.5"/>
<circle fill="#FFFFFF" cx="5" cy="5" r="2"/>
</svg>
