<svg xmlns="http://www.w3.org/2000/svg" viewBox="0 0 18 18" height="18" width="18"><title>airfield-11.svg</title><rect fill="none" x="0" y="0" width="18" height="18"></rect><path fill="#454545" transform="translate(3 3)" d="M5,0.5H3.5C3,0.5,3,0,3.5,0h4
	C8,0,8,0.5,7.5,0.5H6C6,0.5,6.5,1,6.5,2v1H11v1.5l-4.5,2L6,10l1.5,0.5V11h-4v-0.5L5,10L4.5,6.5L0,4.5V3h4.5V2C4.5,1,5,0.5,5,0.5z" style="stroke-linejoin:round;stroke-miterlimit:4px;" stroke="#454545" stroke-width="3"></path><path fill="#d9d9d9" transform="translate(3 3)" d="M5,0.5H3.5C3,0.5,3,0,3.5,0h4
	C8,0,8,0.5,7.5,0.5H6C6,0.5,6.5,1,6.5,2v1H11v1.5l-4.5,2L6,10l1.5,0.5V11h-4v-0.5L5,10L4.5,6.5L0,4.5V3h4.5V2C4.5,1,5,0.5,5,0.5z"></path></svg>