<svg xmlns="http://www.w3.org/2000/svg" width="11" height="11" viewBox="0 0 11 11">
  <title>dot-11</title>
  <path d="M5.5,9.7A4.16,4.16,0,0,1,1.3,5.5a4.2,4.2,0,0,1,8.4,0A4.16,4.16,0,0,1,5.5,9.7Z" opacity="0" style="isolation: isolate"/>
  <path d="M5.5,9.2A3.7,3.7,0,1,1,9.2,5.5,3.7,3.7,0,0,1,5.5,9.2Z" opacity="0.25" style="isolation: isolate"/>
  <path d="M5.5,8.7A3.22,3.22,0,0,1,2.3,5.5,3.29,3.29,0,0,1,5.5,2.3,3.29,3.29,0,0,1,8.7,5.5,3.22,3.22,0,0,1,5.5,8.7Z" opacity="0.25" style="isolation: isolate"/>
  <circle cx="5.5" cy="5.5" r="2.7" opacity="0.25"/>
  <circle cx="5.5" cy="5.5" r="2.2" fill="#d8d8d8"/>
</svg>
