<svg xmlns="http://www.w3.org/2000/svg" viewBox="0 0 18 18" height="18" width="18"><title>marker-11.svg</title><rect fill="none" x="0" y="0" width="18" height="18"></rect><path fill="#454545" transform="translate(3 3)" d="M5.5-0.0176c-1.7866,0-3.8711,1.0918-3.8711,3.8711
	C1.6289,5.7393,4.6067,9.9082,5.5,11c0.7941-1.0918,3.871-5.1614,3.871-7.1466C9.371,1.0742,7.2866-0.0176,5.5-0.0176z" style="stroke-linejoin:round;stroke-miterlimit:4px;" stroke="#454545" stroke-width="3"></path><path fill="#d9d9d9" transform="translate(3 3)" d="M5.5-0.0176c-1.7866,0-3.8711,1.0918-3.8711,3.8711
	C1.6289,5.7393,4.6067,9.9082,5.5,11c0.7941-1.0918,3.871-5.1614,3.871-7.1466C9.371,1.0742,7.2866-0.0176,5.5-0.0176z"></path></svg>