<svg xmlns="http://www.w3.org/2000/svg" viewBox="0 0 22 22" height="22" width="22"><title>religious-christian-15.svg</title><rect fill="none" x="0" y="0" width="22" height="22"></rect><path fill="#454545" transform="translate(3 3)" d="M6,0.9552V4H3v3h3v8h3V7h3V4H9V1
	c0-1-0.9776-1-0.9776-1H6.9887C6.9887,0,6,0,6,0.9552z" style="stroke-linejoin:round;stroke-miterlimit:4px;" stroke="#454545" stroke-width="3"></path><path fill="#d9d9d9" transform="translate(3 3)" d="M6,0.9552V4H3v3h3v8h3V7h3V4H9V1
	c0-1-0.9776-1-0.9776-1H6.9887C6.9887,0,6,0,6,0.9552z"></path></svg>