<svg xmlns="http://www.w3.org/2000/svg" viewBox="0 0 18 18" height="18" width="18"><title>school-11.svg</title><rect fill="none" x="0" y="0" width="18" height="18"></rect><path fill="#454545" transform="translate(3 3)" d="M8.5,9V8H10V6H7.5V5H10V3H8.5V2H10V1H6v9h4V9H8.5z M4,7H1V1h3V7z M4,8l-1.5,2L1,8H4z" style="stroke-linejoin:round;stroke-miterlimit:4px;" stroke="#454545" stroke-width="3"></path><path fill="#d9d9d9" transform="translate(3 3)" d="M8.5,9V8H10V6H7.5V5H10V3H8.5V2H10V1H6v9h4V9H8.5z M4,7H1V1h3V7z M4,8l-1.5,2L1,8H4z"></path></svg>