<svg xmlns="http://www.w3.org/2000/svg" viewBox="0 0 18 18" height="18" width="18"><title>square-stroked-11.svg</title><rect fill="none" x="0" y="0" width="18" height="18"></rect><path fill="#454545" transform="translate(3 3)" d="M9.19,1H1.81C1.3626,1,1,1.3626,1,1.81v7.38C1,9.6374,1.3626,10,1.81,10c0,0,0,0,0,0h7.38C9.6374,10,10,9.6374,10,9.19v0
	V1.81C10,1.3626,9.6374,1,9.19,1L9.19,1L9.19,1z M2,2h7v7H2V2z" style="stroke-linejoin:round;stroke-miterlimit:4;" stroke="#454545" stroke-width="3"></path><path fill="#d9d9d9" transform="translate(3 3)" d="M9.19,1H1.81C1.3626,1,1,1.3626,1,1.81v7.38C1,9.6374,1.3626,10,1.81,10c0,0,0,0,0,0h7.38C9.6374,10,10,9.6374,10,9.19v0
	V1.81C10,1.3626,9.6374,1,9.19,1L9.19,1L9.19,1z M2,2h7v7H2V2z"></path></svg>