<svg xmlns="http://www.w3.org/2000/svg" viewBox="0 0 18 18" height="18" width="18"><title>square-11.svg</title><rect fill="none" x="0" y="0" width="18" height="18"></rect><path fill="#454545" transform="translate(3 3)" d="M9,10H2c-0.5523,0-1-0.4477-1-1V2c0-0.5523,0.4477-1,1-1h7c0.5523,0,1,0.4477,1,1v7C10,9.5523,9.5523,10,9,10z" style="stroke-linejoin:round;stroke-miterlimit:4;" stroke="#454545" stroke-width="3"></path><path fill="#d9d9d9" transform="translate(3 3)" d="M9,10H2c-0.5523,0-1-0.4477-1-1V2c0-0.5523,0.4477-1,1-1h7c0.5523,0,1,0.4477,1,1v7C10,9.5523,9.5523,10,9,10z"></path></svg>